<mxfile host="app.diagrams.net" agent="Mozilla/5.0 (Windows NT 10.0; Win64; x64) AppleWebKit/537.36 (KHTML, like Gecko) Chrome/128.0.0.0 Safari/537.36" version="24.7.10">
  <diagram id="piDafpqhtRUU5qUU-vj8" name="Page-1">
    <mxGraphModel dx="1313" dy="706" grid="1" gridSize="10" guides="1" tooltips="1" connect="1" arrows="1" fold="1" page="1" pageScale="1" pageWidth="827" pageHeight="1169" math="0" shadow="0">
      <root>
        <mxCell id="0" />
        <mxCell id="1" parent="0" />
        <mxCell id="8962rQQDY3VNNf6We3Pp-1" value="" style="strokeWidth=1;shadow=0;dashed=0;align=center;html=1;shape=mxgraph.mockup.containers.browserWindow;rSize=0;strokeColor2=#008cff;strokeColor3=#c4c4c4;mainText=,;recursiveResize=0;strokeColor=#FFFFFF;fontColor=#FFFFFF;" parent="1" vertex="1">
          <mxGeometry x="10" y="10" width="1150" height="1330" as="geometry" />
        </mxCell>
        <mxCell id="8962rQQDY3VNNf6We3Pp-8" value="category" style="rounded=1;fillColor=#F1F2F4;strokeColor=none;html=1;fontColor=#596780;align=left;fontSize=10;spacingLeft=10" parent="8962rQQDY3VNNf6We3Pp-1" vertex="1">
          <mxGeometry x="172" y="217" width="90" height="33" as="geometry" />
        </mxCell>
        <mxCell id="8962rQQDY3VNNf6We3Pp-9" value="" style="shape=triangle;direction=south;fillColor=#596780;strokeColor=none;html=1" parent="8962rQQDY3VNNf6We3Pp-8" vertex="1">
          <mxGeometry x="1" y="0.5" width="12" height="6" relative="1" as="geometry">
            <mxPoint x="-20" y="-3" as="offset" />
          </mxGeometry>
        </mxCell>
        <mxCell id="8962rQQDY3VNNf6We3Pp-10" value="category" style="rounded=1;fillColor=#F1F2F4;strokeColor=none;html=1;fontColor=#596780;align=left;fontSize=10;spacingLeft=10" parent="8962rQQDY3VNNf6We3Pp-1" vertex="1">
          <mxGeometry x="890" y="307" width="90" height="36" as="geometry" />
        </mxCell>
        <mxCell id="8962rQQDY3VNNf6We3Pp-11" value="" style="shape=triangle;direction=south;fillColor=#596780;strokeColor=none;html=1" parent="8962rQQDY3VNNf6We3Pp-10" vertex="1">
          <mxGeometry x="1" y="0.5" width="12" height="6" relative="1" as="geometry">
            <mxPoint x="-20" y="-3" as="offset" />
          </mxGeometry>
        </mxCell>
        <mxCell id="8962rQQDY3VNNf6We3Pp-27" value="" style="strokeWidth=1;shadow=0;dashed=0;align=center;html=1;shape=mxgraph.mockup.buttons.multiButton;fillColor=#008cff;strokeColor=#666666;mainText=;subText=;fontSize=13;fontColor=#0066CC;" parent="8962rQQDY3VNNf6We3Pp-1" vertex="1">
          <mxGeometry x="24" y="790" width="160" height="60" as="geometry" />
        </mxCell>
        <mxCell id="8962rQQDY3VNNf6We3Pp-28" value="pie chart" style="strokeWidth=1;shadow=0;dashed=0;align=center;html=1;shape=mxgraph.mockup.anchor;fontSize=16;fontColor=#ffffff;fontStyle=1;whiteSpace=wrap;" parent="8962rQQDY3VNNf6We3Pp-27" vertex="1">
          <mxGeometry y="9.6" width="160" height="24" as="geometry" />
        </mxCell>
        <mxCell id="8962rQQDY3VNNf6We3Pp-29" value="" style="strokeWidth=1;shadow=0;dashed=0;align=center;html=1;shape=mxgraph.mockup.anchor;fontSize=12;fontColor=#ffffff;fontStyle=1;whiteSpace=wrap;" parent="8962rQQDY3VNNf6We3Pp-27" vertex="1">
          <mxGeometry y="36" width="160" height="12" as="geometry" />
        </mxCell>
        <mxCell id="8962rQQDY3VNNf6We3Pp-35" value="" style="verticalLabelPosition=bottom;shadow=0;dashed=0;align=center;html=1;verticalAlign=top;strokeWidth=1;shape=mxgraph.mockup.markup.line;strokeColor=#999999;fillColor=#008CFF;fontSize=13;fontColor=#0066CC;" parent="8962rQQDY3VNNf6We3Pp-1" vertex="1">
          <mxGeometry y="1180" width="1150" height="20" as="geometry" />
        </mxCell>
        <mxCell id="JA1EeesKJ66g0jXqf918-3" value="lower date" style="strokeWidth=1;shadow=0;dashed=0;align=center;html=1;shape=mxgraph.mockup.text.textBox;fontColor=#666666;align=left;fontSize=17;spacingLeft=4;spacingTop=-3;whiteSpace=wrap;strokeColor=#666666;mainText=" vertex="1" parent="8962rQQDY3VNNf6We3Pp-1">
          <mxGeometry x="300" y="130" width="150" height="30" as="geometry" />
        </mxCell>
        <mxCell id="JA1EeesKJ66g0jXqf918-4" value="upper date" style="strokeWidth=1;shadow=0;dashed=0;align=center;html=1;shape=mxgraph.mockup.text.textBox;fontColor=#666666;align=left;fontSize=17;spacingLeft=4;spacingTop=-3;whiteSpace=wrap;strokeColor=#666666;mainText=" vertex="1" parent="8962rQQDY3VNNf6We3Pp-1">
          <mxGeometry x="470" y="130" width="150" height="30" as="geometry" />
        </mxCell>
        <mxCell id="8962rQQDY3VNNf6We3Pp-14" value="show" style="rounded=1;align=center;strokeColor=none;html=1;fontColor=#ffffff;fontSize=12;fillColor=#008CFF;" parent="8962rQQDY3VNNf6We3Pp-1" vertex="1">
          <mxGeometry x="644" y="124" width="86" height="33" as="geometry" />
        </mxCell>
        <mxCell id="JA1EeesKJ66g0jXqf918-6" value="" style="verticalLabelPosition=bottom;shadow=0;dashed=0;align=center;html=1;verticalAlign=top;strokeWidth=1;shape=mxgraph.mockup.forms.colorPicker;chosenColor=#aaddff;" vertex="1" parent="8962rQQDY3VNNf6We3Pp-1">
          <mxGeometry x="24" y="470" width="596" height="290" as="geometry" />
        </mxCell>
        <mxCell id="JA1EeesKJ66g0jXqf918-8" value="" style="verticalLabelPosition=bottom;shadow=0;dashed=0;align=center;html=1;verticalAlign=top;strokeWidth=1;shape=mxgraph.mockup.forms.horSlider;strokeColor=#999999;sliderStyle=basic;sliderPos=17.955;handleStyle=circle;fillColor2=#ddeeff;direction=north;" vertex="1" parent="8962rQQDY3VNNf6We3Pp-1">
          <mxGeometry x="564" y="505" width="30" height="220" as="geometry" />
        </mxCell>
        <mxCell id="JA1EeesKJ66g0jXqf918-9" value="show expenses in cost range" style="strokeWidth=1;shadow=0;dashed=0;align=center;html=1;shape=mxgraph.mockup.text.textBox;fontColor=#666666;align=left;fontSize=17;spacingLeft=4;spacingTop=-3;whiteSpace=wrap;strokeColor=none;mainText=" vertex="1" parent="8962rQQDY3VNNf6We3Pp-1">
          <mxGeometry x="30" y="176" width="250" height="30" as="geometry" />
        </mxCell>
        <mxCell id="JA1EeesKJ66g0jXqf918-10" value="lower cost" style="strokeWidth=1;shadow=0;dashed=0;align=center;html=1;shape=mxgraph.mockup.text.textBox;fontColor=#666666;align=left;fontSize=17;spacingLeft=4;spacingTop=-3;whiteSpace=wrap;strokeColor=#666666;mainText=" vertex="1" parent="8962rQQDY3VNNf6We3Pp-1">
          <mxGeometry x="300" y="176" width="150" height="30" as="geometry" />
        </mxCell>
        <mxCell id="JA1EeesKJ66g0jXqf918-11" value="upper cost" style="strokeWidth=1;shadow=0;dashed=0;align=center;html=1;shape=mxgraph.mockup.text.textBox;fontColor=#666666;align=left;fontSize=17;spacingLeft=4;spacingTop=-3;whiteSpace=wrap;strokeColor=#666666;mainText=" vertex="1" parent="8962rQQDY3VNNf6We3Pp-1">
          <mxGeometry x="470" y="176" width="150" height="30" as="geometry" />
        </mxCell>
        <mxCell id="JA1EeesKJ66g0jXqf918-12" value="show" style="rounded=1;align=center;strokeColor=none;html=1;fontColor=#ffffff;fontSize=12;fillColor=#008CFF;" vertex="1" parent="8962rQQDY3VNNf6We3Pp-1">
          <mxGeometry x="644" y="170" width="86" height="33" as="geometry" />
        </mxCell>
        <mxCell id="JA1EeesKJ66g0jXqf918-13" value="filter by category" style="strokeWidth=1;shadow=0;dashed=0;align=center;html=1;shape=mxgraph.mockup.text.textBox;fontColor=#666666;align=left;fontSize=17;spacingLeft=4;spacingTop=-3;whiteSpace=wrap;strokeColor=none;mainText=" vertex="1" parent="8962rQQDY3VNNf6We3Pp-1">
          <mxGeometry x="30" y="220" width="140" height="30" as="geometry" />
        </mxCell>
        <mxCell id="JA1EeesKJ66g0jXqf918-14" value="filter" style="rounded=1;align=center;strokeColor=none;html=1;fontColor=#ffffff;fontSize=12;fillColor=#008CFF;" vertex="1" parent="8962rQQDY3VNNf6We3Pp-1">
          <mxGeometry x="292" y="218.5" width="86" height="33" as="geometry" />
        </mxCell>
        <mxCell id="JA1EeesKJ66g0jXqf918-15" value="filter by description" style="strokeWidth=1;shadow=0;dashed=0;align=center;html=1;shape=mxgraph.mockup.text.textBox;fontColor=#666666;align=left;fontSize=17;spacingLeft=4;spacingTop=-3;whiteSpace=wrap;strokeColor=none;mainText=" vertex="1" parent="8962rQQDY3VNNf6We3Pp-1">
          <mxGeometry x="30" y="264" width="160" height="30" as="geometry" />
        </mxCell>
        <mxCell id="JA1EeesKJ66g0jXqf918-16" value="text" style="strokeWidth=1;shadow=0;dashed=0;align=center;html=1;shape=mxgraph.mockup.text.textBox;fontColor=#666666;align=left;fontSize=17;spacingLeft=4;spacingTop=-3;whiteSpace=wrap;strokeColor=#666666;mainText=" vertex="1" parent="8962rQQDY3VNNf6We3Pp-1">
          <mxGeometry x="190" y="265.5" width="150" height="30" as="geometry" />
        </mxCell>
        <mxCell id="JA1EeesKJ66g0jXqf918-17" value="filter" style="rounded=1;align=center;strokeColor=none;html=1;fontColor=#ffffff;fontSize=12;fillColor=#008CFF;" vertex="1" parent="8962rQQDY3VNNf6We3Pp-1">
          <mxGeometry x="360" y="262.5" width="86" height="33" as="geometry" />
        </mxCell>
        <mxCell id="JA1EeesKJ66g0jXqf918-18" value="insert expense" style="strokeWidth=1;shadow=0;dashed=0;align=center;html=1;shape=mxgraph.mockup.text.textBox;fontColor=#666666;align=left;fontSize=17;spacingLeft=4;spacingTop=-3;whiteSpace=wrap;strokeColor=none;mainText=" vertex="1" parent="8962rQQDY3VNNf6We3Pp-1">
          <mxGeometry x="30" y="310" width="130" height="30" as="geometry" />
        </mxCell>
        <mxCell id="JA1EeesKJ66g0jXqf918-19" value="&lt;span style=&quot;color: rgb(102, 102, 102); font-size: 17px; text-align: left;&quot;&gt;show expenses in Date range&lt;/span&gt;" style="text;html=1;align=center;verticalAlign=middle;whiteSpace=wrap;rounded=0;" vertex="1" parent="8962rQQDY3VNNf6We3Pp-1">
          <mxGeometry x="20" y="130" width="250" height="30" as="geometry" />
        </mxCell>
        <mxCell id="JA1EeesKJ66g0jXqf918-20" value="date:" style="strokeWidth=1;shadow=0;dashed=0;align=center;html=1;shape=mxgraph.mockup.text.textBox;fontColor=#666666;align=left;fontSize=17;spacingLeft=4;spacingTop=-3;whiteSpace=wrap;strokeColor=none;mainText=" vertex="1" parent="8962rQQDY3VNNf6We3Pp-1">
          <mxGeometry x="152" y="310" width="130" height="30" as="geometry" />
        </mxCell>
        <mxCell id="JA1EeesKJ66g0jXqf918-21" value="text" style="strokeWidth=1;shadow=0;dashed=0;align=center;html=1;shape=mxgraph.mockup.text.textBox;fontColor=#666666;align=left;fontSize=17;spacingLeft=4;spacingTop=-3;whiteSpace=wrap;strokeColor=#666666;mainText=" vertex="1" parent="8962rQQDY3VNNf6We3Pp-1">
          <mxGeometry x="204" y="310" width="150" height="30" as="geometry" />
        </mxCell>
        <mxCell id="JA1EeesKJ66g0jXqf918-24" value="description:" style="strokeWidth=1;shadow=0;dashed=0;align=center;html=1;shape=mxgraph.mockup.text.textBox;fontColor=#666666;align=left;fontSize=17;spacingLeft=4;spacingTop=-3;whiteSpace=wrap;strokeColor=none;mainText=" vertex="1" parent="8962rQQDY3VNNf6We3Pp-1">
          <mxGeometry x="354" y="310" width="130" height="30" as="geometry" />
        </mxCell>
        <mxCell id="JA1EeesKJ66g0jXqf918-25" value="text" style="strokeWidth=1;shadow=0;dashed=0;align=center;html=1;shape=mxgraph.mockup.text.textBox;fontColor=#666666;align=left;fontSize=17;spacingLeft=4;spacingTop=-3;whiteSpace=wrap;strokeColor=#666666;mainText=" vertex="1" parent="8962rQQDY3VNNf6We3Pp-1">
          <mxGeometry x="460" y="310" width="110" height="30" as="geometry" />
        </mxCell>
        <mxCell id="JA1EeesKJ66g0jXqf918-26" value="cost:" style="strokeWidth=1;shadow=0;dashed=0;align=center;html=1;shape=mxgraph.mockup.text.textBox;fontColor=#666666;align=left;fontSize=17;spacingLeft=4;spacingTop=-3;whiteSpace=wrap;strokeColor=none;mainText=" vertex="1" parent="8962rQQDY3VNNf6We3Pp-1">
          <mxGeometry x="586" y="310" width="130" height="30" as="geometry" />
        </mxCell>
        <mxCell id="JA1EeesKJ66g0jXqf918-27" value="text" style="strokeWidth=1;shadow=0;dashed=0;align=center;html=1;shape=mxgraph.mockup.text.textBox;fontColor=#666666;align=left;fontSize=17;spacingLeft=4;spacingTop=-3;whiteSpace=wrap;strokeColor=#666666;mainText=" vertex="1" parent="8962rQQDY3VNNf6We3Pp-1">
          <mxGeometry x="638" y="310" width="150" height="30" as="geometry" />
        </mxCell>
        <mxCell id="JA1EeesKJ66g0jXqf918-28" value="category" style="strokeWidth=1;shadow=0;dashed=0;align=center;html=1;shape=mxgraph.mockup.text.textBox;fontColor=#666666;align=left;fontSize=17;spacingLeft=4;spacingTop=-3;whiteSpace=wrap;strokeColor=none;mainText=" vertex="1" parent="8962rQQDY3VNNf6We3Pp-1">
          <mxGeometry x="804" y="310" width="86" height="30" as="geometry" />
        </mxCell>
        <mxCell id="JA1EeesKJ66g0jXqf918-30" value="insert" style="rounded=1;align=center;strokeColor=none;html=1;fontColor=#ffffff;fontSize=12;fillColor=#008CFF;" vertex="1" parent="8962rQQDY3VNNf6We3Pp-1">
          <mxGeometry x="1010" y="310" width="86" height="33" as="geometry" />
        </mxCell>
        <mxCell id="JA1EeesKJ66g0jXqf918-31" value="remove expense" style="strokeWidth=1;shadow=0;dashed=0;align=center;html=1;shape=mxgraph.mockup.text.textBox;fontColor=#666666;align=left;fontSize=17;spacingLeft=4;spacingTop=-3;whiteSpace=wrap;strokeColor=none;mainText=" vertex="1" parent="8962rQQDY3VNNf6We3Pp-1">
          <mxGeometry x="30" y="360" width="140" height="30" as="geometry" />
        </mxCell>
        <mxCell id="JA1EeesKJ66g0jXqf918-32" value="ID" style="strokeWidth=1;shadow=0;dashed=0;align=center;html=1;shape=mxgraph.mockup.text.textBox;fontColor=#666666;align=left;fontSize=17;spacingLeft=4;spacingTop=-3;whiteSpace=wrap;strokeColor=none;mainText=" vertex="1" parent="8962rQQDY3VNNf6We3Pp-1">
          <mxGeometry x="172" y="360" width="130" height="30" as="geometry" />
        </mxCell>
        <mxCell id="JA1EeesKJ66g0jXqf918-33" value="text" style="strokeWidth=1;shadow=0;dashed=0;align=center;html=1;shape=mxgraph.mockup.text.textBox;fontColor=#666666;align=left;fontSize=17;spacingLeft=4;spacingTop=-3;whiteSpace=wrap;strokeColor=#666666;mainText=" vertex="1" parent="8962rQQDY3VNNf6We3Pp-1">
          <mxGeometry x="224" y="360" width="150" height="30" as="geometry" />
        </mxCell>
        <mxCell id="JA1EeesKJ66g0jXqf918-34" value="Delete" style="rounded=1;align=center;strokeColor=none;html=1;fontColor=#ffffff;fontSize=12;fillColor=#008CFF;" vertex="1" parent="8962rQQDY3VNNf6We3Pp-1">
          <mxGeometry x="390" y="360" width="86" height="33" as="geometry" />
        </mxCell>
        <mxCell id="JA1EeesKJ66g0jXqf918-35" value="" style="strokeWidth=1;shadow=0;dashed=0;align=center;html=1;shape=mxgraph.mockup.buttons.multiButton;fillColor=#008cff;strokeColor=#666666;mainText=;subText=;fontSize=13;fontColor=#0066CC;" vertex="1" parent="8962rQQDY3VNNf6We3Pp-1">
          <mxGeometry x="224" y="790" width="160" height="60" as="geometry" />
        </mxCell>
        <mxCell id="JA1EeesKJ66g0jXqf918-36" value="column chart" style="strokeWidth=1;shadow=0;dashed=0;align=center;html=1;shape=mxgraph.mockup.anchor;fontSize=16;fontColor=#ffffff;fontStyle=1;whiteSpace=wrap;" vertex="1" parent="JA1EeesKJ66g0jXqf918-35">
          <mxGeometry y="9.6" width="160" height="24" as="geometry" />
        </mxCell>
        <mxCell id="JA1EeesKJ66g0jXqf918-37" value="" style="strokeWidth=1;shadow=0;dashed=0;align=center;html=1;shape=mxgraph.mockup.anchor;fontSize=12;fontColor=#ffffff;fontStyle=1;whiteSpace=wrap;" vertex="1" parent="JA1EeesKJ66g0jXqf918-35">
          <mxGeometry y="36" width="160" height="12" as="geometry" />
        </mxCell>
        <mxCell id="JA1EeesKJ66g0jXqf918-38" value="Expense Tracker" style="strokeWidth=1;shadow=0;dashed=0;align=center;html=1;shape=mxgraph.mockup.text.textBox;fontColor=#666666;align=left;fontSize=17;spacingLeft=4;spacingTop=-3;whiteSpace=wrap;strokeColor=none;mainText=" vertex="1" parent="8962rQQDY3VNNf6We3Pp-1">
          <mxGeometry x="30" y="10" width="150" height="30" as="geometry" />
        </mxCell>
        <mxCell id="JA1EeesKJ66g0jXqf918-39" value="update expense" style="strokeWidth=1;shadow=0;dashed=0;align=center;html=1;shape=mxgraph.mockup.text.textBox;fontColor=#666666;align=left;fontSize=17;spacingLeft=4;spacingTop=-3;whiteSpace=wrap;strokeColor=none;mainText=" vertex="1" parent="8962rQQDY3VNNf6We3Pp-1">
          <mxGeometry x="24.75" y="410" width="140" height="30" as="geometry" />
        </mxCell>
        <mxCell id="JA1EeesKJ66g0jXqf918-40" value="ID" style="strokeWidth=1;shadow=0;dashed=0;align=center;html=1;shape=mxgraph.mockup.text.textBox;fontColor=#666666;align=left;fontSize=17;spacingLeft=4;spacingTop=-3;whiteSpace=wrap;strokeColor=none;mainText=" vertex="1" parent="8962rQQDY3VNNf6We3Pp-1">
          <mxGeometry x="171.75" y="410" width="130" height="30" as="geometry" />
        </mxCell>
        <mxCell id="JA1EeesKJ66g0jXqf918-41" value="text" style="strokeWidth=1;shadow=0;dashed=0;align=center;html=1;shape=mxgraph.mockup.text.textBox;fontColor=#666666;align=left;fontSize=17;spacingLeft=4;spacingTop=-3;whiteSpace=wrap;strokeColor=#666666;mainText=" vertex="1" parent="8962rQQDY3VNNf6We3Pp-1">
          <mxGeometry x="223.75" y="410" width="86" height="30" as="geometry" />
        </mxCell>
        <mxCell id="JA1EeesKJ66g0jXqf918-42" value="show" style="rounded=1;align=center;strokeColor=none;html=1;fontColor=#ffffff;fontSize=12;fillColor=#008CFF;" vertex="1" parent="8962rQQDY3VNNf6We3Pp-1">
          <mxGeometry x="317.75" y="410" width="86" height="33" as="geometry" />
        </mxCell>
        <mxCell id="JA1EeesKJ66g0jXqf918-43" value="description:" style="strokeWidth=1;shadow=0;dashed=0;align=center;html=1;shape=mxgraph.mockup.text.textBox;fontColor=#666666;align=left;fontSize=17;spacingLeft=4;spacingTop=-3;whiteSpace=wrap;strokeColor=none;mainText=" vertex="1" parent="8962rQQDY3VNNf6We3Pp-1">
          <mxGeometry x="407.25" y="413" width="130" height="30" as="geometry" />
        </mxCell>
        <mxCell id="JA1EeesKJ66g0jXqf918-44" value="category" style="rounded=1;fillColor=#F1F2F4;strokeColor=none;html=1;fontColor=#596780;align=left;fontSize=10;spacingLeft=10" vertex="1" parent="8962rQQDY3VNNf6We3Pp-1">
          <mxGeometry x="927.25" y="410" width="90" height="36" as="geometry" />
        </mxCell>
        <mxCell id="JA1EeesKJ66g0jXqf918-45" value="" style="shape=triangle;direction=south;fillColor=#596780;strokeColor=none;html=1" vertex="1" parent="JA1EeesKJ66g0jXqf918-44">
          <mxGeometry x="1" y="0.5" width="12" height="6" relative="1" as="geometry">
            <mxPoint x="-20" y="-3" as="offset" />
          </mxGeometry>
        </mxCell>
        <mxCell id="JA1EeesKJ66g0jXqf918-46" value="text" style="strokeWidth=1;shadow=0;dashed=0;align=center;html=1;shape=mxgraph.mockup.text.textBox;fontColor=#666666;align=left;fontSize=17;spacingLeft=4;spacingTop=-3;whiteSpace=wrap;strokeColor=#666666;mainText=" vertex="1" parent="8962rQQDY3VNNf6We3Pp-1">
          <mxGeometry x="497.25" y="413" width="110" height="30" as="geometry" />
        </mxCell>
        <mxCell id="JA1EeesKJ66g0jXqf918-47" value="cost:" style="strokeWidth=1;shadow=0;dashed=0;align=center;html=1;shape=mxgraph.mockup.text.textBox;fontColor=#666666;align=left;fontSize=17;spacingLeft=4;spacingTop=-3;whiteSpace=wrap;strokeColor=none;mainText=" vertex="1" parent="8962rQQDY3VNNf6We3Pp-1">
          <mxGeometry x="623.25" y="413" width="130" height="30" as="geometry" />
        </mxCell>
        <mxCell id="JA1EeesKJ66g0jXqf918-48" value="text" style="strokeWidth=1;shadow=0;dashed=0;align=center;html=1;shape=mxgraph.mockup.text.textBox;fontColor=#666666;align=left;fontSize=17;spacingLeft=4;spacingTop=-3;whiteSpace=wrap;strokeColor=#666666;mainText=" vertex="1" parent="8962rQQDY3VNNf6We3Pp-1">
          <mxGeometry x="675.25" y="413" width="150" height="30" as="geometry" />
        </mxCell>
        <mxCell id="JA1EeesKJ66g0jXqf918-49" value="category" style="strokeWidth=1;shadow=0;dashed=0;align=center;html=1;shape=mxgraph.mockup.text.textBox;fontColor=#666666;align=left;fontSize=17;spacingLeft=4;spacingTop=-3;whiteSpace=wrap;strokeColor=none;mainText=" vertex="1" parent="8962rQQDY3VNNf6We3Pp-1">
          <mxGeometry x="841.25" y="413" width="86" height="30" as="geometry" />
        </mxCell>
        <mxCell id="JA1EeesKJ66g0jXqf918-50" value="update" style="rounded=1;align=center;strokeColor=none;html=1;fontColor=#ffffff;fontSize=12;fillColor=#008CFF;" vertex="1" parent="8962rQQDY3VNNf6We3Pp-1">
          <mxGeometry x="1047.25" y="413" width="86" height="33" as="geometry" />
        </mxCell>
      </root>
    </mxGraphModel>
  </diagram>
</mxfile>
